<?xml version="1.0" encoding="utf-8"?>
<!-- Generator: Adobe Illustrator 22.0.1, SVG Export Plug-In . SVG Version: 6.00 Build 0)  -->
<svg width="360px" height="360px" viewBox="0 0 360 360" version="1.1" xmlns="http://www.w3.org/2000/svg" xmlns:xlink="http://www.w3.org/1999/xlink">
<!--<style type="text/css">
.st0{fill:#446DA7;}
.st1{fill:#FFFFFF;}
</style>-->
<g id="loop_tie_sq_logo_icon_orange" stroke="none" stroke-width="1" fill="none" fill-rule="evenodd">
        <rect fill="#FF8E6B" x="0" y="0" width="360" height="360"></rect>
<!--<path id="Shape" class="st0" d="M120,108c0,6.6-5.4,12-12,12H12c-6.6,0-12-5.4-12-12V12C0,5.4,5.4,0,12,0h96c6.6,0,12,5.4,12,12V108
L120,108z"/>-->
<path class="st1" d="M272.887006,140.101302 L272.091684,143.525326 C267.849967,161.698987 264.138464,167.230101 244.520523,
167.230101 C238.95327,167.230101 234.446446,166.966715 227.023441,166.176556 C229.674514,171.971056 230.734943,177.765557 230.734943,
186.457308 C230.734943,200.680174 226.228119,215.429812 218.2749,227.545586 C229.144299,241.768452 235.241767,248.353111 242.664772,
253.357453 C248.232026,257.308249 253.269065,258.888567 263.60825,259.41534 L263.60825,263.892909 C255.920138,263.629522 253.269065,
263.629522 243.725201,263.629522 C234.446446,263.629522 231.795372,263.629522 224.10726,263.892909 C217.21447,254.410999 215.358719,
252.040521 208.200822,242.558611 C193.61992,258.625181 176.387944,266 153.853823,266 C118.859658,266 95,244.402315 95,212.532562 C95,
187.247467 110.641331,167.756874 136.886955,159.591896 C127.608199,148.793054 120.450302,138.78437 120.450302,123.771346 C120.450302,
100.06657 139.272921,84 166.578974,84 C178.508803,84 190.173525,86.633864 199.187173,91.6382055 C198.922066,97.6960926 198.656959,
100.329957 198.656959,106.387844 C198.656959,111.918958 198.656959,117.976845 199.187173,123.507959 L193.354812,123.507959 C192.029276,
104.544139 182.220305,93.7452967 166.313867,93.7452967 C150.407428,93.7452967 139.538028,104.544139 139.538028,120.347323 C139.538028,
135.88712 148.28657,148.529667 158.625755,159.328509 C176.918159,178.555716 192.029276,195.412446 211.912324,219.117221 C215.888934,
210.162084 218.009792,201.733719 218.009792,193.041968 C218.009792,175.658466 206.875285,164.596237 189.378203,164.596237 C185.6667,
164.596237 183.280735,165.12301 179.039018,166.176556 L178.508803,165.649783 C179.569232,161.435601 181.424983,157.484805 182.220305,
156.694645 C184.341164,155.114327 193.61992,154.060781 203.163783,154.060781 C214.563397,154.060781 226.228119,154.850941 237.627733,
154.850941 C257.510782,154.850941 264.668679,151.163531 267.849967,139.311143 L272.887006,140.101302 Z M201.937853,231.242082 C172.218152,
196.28163 158.154365,179.860812 142.233096,163.175141 C120.739384,171.650402 111.451977,183.568738 111.451977,203.432631 C111.451977,
230.712378 132.414981,250.576271 161.073264,250.576271 C177.259887,250.576271 192.650447,243.160418 201.937853,231.242082 Z" 
id="loop&amp;tie" stroke="#FFFFFF" fill="#FFFFFF" fill-rule="nonzero"/>
</g>
</svg>